<svg width="553" height="487" viewBox="0 0 553 487" fill="none" xmlns="http://www.w3.org/2000/svg">
<path d="M289.329 433.495L272.816 385L293.669 414.856L304.57 432.095C307.608 437.279 307.952 439.943 303.228 443.733C296.71 447.648 293.707 445.109 289.329 433.495Z" fill="black" stroke="black" stroke-width="2"/>
<path d="M262.679 440.844L267.243 389.818L274.202 425.564L277.179 445.742C277.855 451.713 277.089 454.287 271.235 455.837C263.688 456.774 261.973 453.235 262.679 440.844Z" fill="#FFFCFC" stroke="black" stroke-width="2"/>
<path d="M242.678 16.8366L242.659 68.0665L232.556 33.0783L227.8 13.2443C226.598 7.35671 227.132 4.72498 232.826 2.66155C240.259 1.05936 242.282 4.43165 242.678 16.8366Z" fill="black" stroke="black" stroke-width="2"/>
<path d="M270.273 18.4809L249.488 65.3046L254.436 29.2246L258.129 9.16573C259.417 3.29617 260.972 1.10684 267.014 1.52883C274.458 3.07766 274.94 6.9804 270.273 18.4809Z" fill="#FFFCFC" stroke="black" stroke-width="2"/>
<path d="M531.055 199.447L481 210.357L513.028 193.022L531.391 184.145C536.886 181.715 539.571 181.675 542.802 186.798C545.953 193.718 543.09 196.414 531.055 199.447Z" fill="black" stroke="black" stroke-width="2"/>
<path d="M535.335 226.758L485.155 216.44L521.46 213.577L541.845 212.907C547.854 212.913 550.325 213.965 551.202 219.957C551.277 227.561 547.566 228.864 535.335 226.758Z" fill="#FFFCFC" stroke="black" stroke-width="2"/>
<path d="M17.0508 192.349L68.1977 195.263L32.6944 203.373L12.6233 206.999C6.67715 207.867 4.0798 207.185 2.34149 201.384C1.162 193.872 4.64323 192.043 17.0508 192.349Z" fill="black" stroke="black" stroke-width="2"/>
<path d="M20.2522 164.89L65.8262 188.289L30.0836 181.309L10.2655 176.488C4.4781 174.87 2.38015 173.194 3.14294 167.186C5.11008 159.841 9.03381 159.58 20.2522 164.89Z" fill="#FFFCFC" stroke="black" stroke-width="2"/>
<ellipse cx="152.716" cy="148.599" rx="4.5" ry="5" transform="rotate(-128.698 152.716 148.599)" fill="#FFFCFC"/>
<ellipse cx="180.506" cy="135.305" rx="4.5" ry="5" transform="rotate(-128.698 180.506 135.305)" fill="#FFFCFC"/>
<ellipse cx="157.386" cy="125.638" rx="4.5" ry="5" transform="rotate(-128.698 157.386 125.638)" fill="#03083F"/>
<ellipse cx="93.7157" cy="329.599" rx="4.5" ry="5" transform="rotate(-128.698 93.7157 329.599)" fill="#FFFCFC"/>
<ellipse cx="121.506" cy="316.305" rx="4.5" ry="5" transform="rotate(-128.698 121.506 316.305)" fill="#FFFCFC"/>
<ellipse cx="98.3857" cy="306.638" rx="4.5" ry="5" transform="rotate(-128.698 98.3857 306.638)" fill="#03083F"/>
<ellipse cx="79.7157" cy="301.599" rx="4.5" ry="5" transform="rotate(-128.698 79.7157 301.599)" fill="#FFFCFC"/>
<ellipse cx="107.506" cy="288.305" rx="4.5" ry="5" transform="rotate(-128.698 107.506 288.305)" fill="#FFFCFC"/>
<ellipse cx="84.3855" cy="278.638" rx="4.5" ry="5" transform="rotate(-128.698 84.3855 278.638)" fill="#FFFCFC"/>
<ellipse cx="253.354" cy="93.5826" rx="4.5" ry="5" transform="rotate(-67.1684 253.354 93.5826)" fill="#FFFCFC"/>
<ellipse cx="275.764" cy="86.7422" rx="4.5" ry="5" transform="rotate(-67.1684 275.764 86.7422)" fill="#03083F"/>
<ellipse cx="271.294" cy="67.928" rx="4.5" ry="5" transform="rotate(-67.1684 271.294 67.928)" fill="#FFFCFC"/>
<ellipse cx="296.228" cy="86.0202" rx="4.5" ry="5" transform="rotate(-67.1684 296.228 86.0202)" fill="#FFFCFC"/>
<ellipse cx="293.704" cy="61.0876" rx="4.5" ry="5" transform="rotate(-67.1684 293.704 61.0876)" fill="#FFFCFC"/>
<ellipse cx="21.9083" cy="272" rx="4.5" ry="5" transform="rotate(-125.129 21.9083 272)" fill="#FFFCFC"/>
<ellipse cx="27.9986" cy="249.375" rx="4.5" ry="5" transform="rotate(-125.129 27.9986 249.375)" fill="#FFFCFC"/>
<ellipse cx="9.67866" cy="243.183" rx="4.5" ry="5" transform="rotate(-125.129 9.67866 243.183)" fill="#FFFCFC"/>
<ellipse cx="38.2425" cy="231.645" rx="4.5" ry="5" transform="rotate(-125.129 38.2425 231.645)" fill="#03083F"/>
<ellipse cx="15.7689" cy="220.557" rx="4.5" ry="5" transform="rotate(-125.129 15.7689 220.557)" fill="#FFFCFC"/>
<ellipse cx="180.55" cy="438.542" rx="4.5" ry="5" transform="rotate(169.806 180.55 438.542)" fill="#FFFCFC"/>
<ellipse cx="162.601" cy="423.481" rx="4.5" ry="5" transform="rotate(169.806 162.601 423.481)" fill="#FFFCFC"/>
<ellipse cx="149.263" cy="437.483" rx="4.5" ry="5" transform="rotate(169.806 149.263 437.483)" fill="#03083F"/>
<ellipse cx="150.843" cy="406.717" rx="4.5" ry="5" transform="rotate(169.806 150.843 406.717)" fill="#FFFCFC"/>
<ellipse cx="131.314" cy="422.422" rx="4.5" ry="5" transform="rotate(169.806 131.314 422.422)" fill="#FFFCFC"/>
<ellipse cx="319.387" cy="406.211" rx="4.5" ry="5" transform="rotate(98.7917 319.387 406.211)" fill="#FFFCFC"/>
<ellipse cx="300.846" cy="404.54" rx="4.5" ry="5" transform="rotate(170.943 300.846 404.54)" fill="#FFFCFC"/>
<ellipse cx="339.629" cy="434.211" rx="4.5" ry="5" transform="rotate(98.7917 339.629 434.211)" fill="#FFFCFC"/>
<ellipse cx="324.89" cy="456.971" rx="4.5" ry="5" transform="rotate(165.442 324.89 456.971)" fill="#FFFCFC"/>
<ellipse cx="306.612" cy="474.115" rx="4.5" ry="5" transform="rotate(165.442 306.612 474.115)" fill="#03083F"/>
<ellipse cx="318.493" cy="419.955" rx="4.5" ry="5" transform="rotate(170.943 318.493 419.955)" fill="#FFFCFC"/>
<ellipse cx="242.541" cy="453.81" rx="4.5" ry="5" transform="rotate(-172.617 242.541 453.81)" fill="#FFFCFC"/>
<ellipse cx="284.74" cy="480.081" rx="4.5" ry="5" transform="rotate(148.904 284.74 480.081)" fill="#FFFCFC"/>
<ellipse cx="236.394" cy="434.278" rx="4.5" ry="5" transform="rotate(-172.617 236.394 434.278)" fill="#FFFCFC"/>
<ellipse cx="262.599" cy="472.415" rx="4.5" ry="5" transform="rotate(148.904 262.599 472.415)" fill="#FFFCFC"/>
<ellipse cx="441.474" cy="376.159" rx="4.5" ry="5" transform="rotate(81.9016 441.474 376.159)" fill="#FFFCFC"/>
<ellipse cx="425.766" cy="393.546" rx="4.5" ry="5" transform="rotate(81.9016 425.766 393.546)" fill="#FFFCFC"/>
<ellipse cx="439.271" cy="407.387" rx="4.5" ry="5" transform="rotate(81.9016 439.271 407.387)" fill="#FFFCFC"/>
<ellipse cx="408.584" cy="404.683" rx="4.5" ry="5" transform="rotate(81.9016 408.584 404.683)" fill="#FFFCFC"/>
<ellipse cx="423.564" cy="424.773" rx="4.5" ry="5" transform="rotate(81.9016 423.564 424.773)" fill="#03083F"/>
<ellipse cx="81.105" cy="402.752" rx="4.5" ry="5" transform="rotate(-153.5 81.105 402.752)" fill="#FFFCFC"/>
<ellipse cx="75.7124" cy="379.95" rx="4.5" ry="5" transform="rotate(-153.5 75.7124 379.95)" fill="#FFFCFC"/>
<ellipse cx="56.6508" cy="383.207" rx="4.5" ry="5" transform="rotate(-153.5 56.6508 383.207)" fill="#03083F"/>
<ellipse cx="76.3012" cy="359.483" rx="4.5" ry="5" transform="rotate(-153.5 76.3012 359.483)" fill="#FFFCFC"/>
<ellipse cx="51.2582" cy="360.406" rx="4.5" ry="5" transform="rotate(-153.5 51.2582 360.406)" fill="#FFFCFC"/>
<ellipse cx="94.3325" cy="213.693" rx="4.5" ry="5" transform="rotate(-167.868 94.3325 213.693)" fill="#FFFCFC"/>
<ellipse cx="107.481" cy="185.834" rx="4.5" ry="5" transform="rotate(-167.868 107.481 185.834)" fill="#FFFCFC"/>
<ellipse cx="83.4504" cy="192.942" rx="4.5" ry="5" transform="rotate(-167.868 83.4504 192.942)" fill="#FFFCFC"/>
<ellipse cx="492.746" cy="279.504" rx="4.5" ry="5" transform="rotate(171.972 492.746 279.504)" fill="#FFFCFC"/>
<ellipse cx="495.487" cy="248.82" rx="4.5" ry="5" transform="rotate(171.972 495.487 248.82)" fill="#FFFCFC"/>
<ellipse cx="475.379" cy="263.775" rx="4.5" ry="5" transform="rotate(171.972 475.379 263.775)" fill="#03083F"/>
<ellipse cx="461.521" cy="277.263" rx="4.5" ry="5" transform="rotate(171.972 461.521 277.263)" fill="#FFFCFC"/>
<ellipse cx="464.263" cy="246.579" rx="4.5" ry="5" transform="rotate(171.972 464.263 246.579)" fill="#FFFCFC"/>
<ellipse cx="444.154" cy="261.534" rx="4.5" ry="5" transform="rotate(171.972 444.154 261.534)" fill="#FFFCFC"/>
<ellipse cx="469.125" cy="186.219" rx="4.5" ry="5" transform="rotate(132.802 469.125 186.219)" fill="#FFFCFC"/>
<ellipse cx="451.87" cy="160.699" rx="4.5" ry="5" transform="rotate(132.802 451.87 160.699)" fill="#FFFCFC"/>
<ellipse cx="445.726" cy="184.994" rx="4.5" ry="5" transform="rotate(132.802 445.726 184.994)" fill="#FFFCFC"/>
<ellipse cx="409.767" cy="329.714" rx="4.5" ry="5" transform="rotate(38.4407 409.767 329.714)" fill="#FFFCFC"/>
<ellipse cx="385.633" cy="348.86" rx="4.5" ry="5" transform="rotate(38.4407 385.633 348.86)" fill="#FFFCFC"/>
<ellipse cx="410.325" cy="353.138" rx="4.5" ry="5" transform="rotate(38.4407 410.325 353.138)" fill="#03083F"/>
<ellipse cx="378.659" cy="102.949" rx="4.5" ry="5" transform="rotate(-56.1377 378.659 102.949)" fill="#FFFCFC"/>
<ellipse cx="399.67" cy="125.477" rx="4.5" ry="5" transform="rotate(-56.1377 399.67 125.477)" fill="#FFFCFC"/>
<ellipse cx="401.964" cy="100.523" rx="4.5" ry="5" transform="rotate(-56.1377 401.964 100.523)" fill="#03083F"/>
<ellipse cx="194.592" cy="373.92" rx="4.5" ry="5" transform="rotate(102.712 194.592 373.92)" fill="#03083F"/>
<ellipse cx="166.868" cy="360.49" rx="4.5" ry="5" transform="rotate(102.712 166.868 360.49)" fill="#FFFCFC"/>
<ellipse cx="173.732" cy="384.591" rx="4.5" ry="5" transform="rotate(102.712 173.732 384.591)" fill="#FFFCFC"/>
<path d="M101.5 216.5C88.8303 229.678 80.4791 236.756 58 247.5C91.9863 254.868 122.158 292.176 121 298C123.859 303.449 116.916 356.007 101.5 369C135.131 359.165 154 354 187.5 359.5C209 369 213.859 390.826 222.5 411.5C237.713 382.982 249.967 370.713 292 369C316.574 372.618 330.839 378.894 356.5 392C360.359 366.245 365.776 352.494 394.5 332C421.895 320.49 438.722 317.239 474.5 324C452.049 300.166 442.23 286.702 443.5 262C446.121 245.716 451.571 237.193 474.5 224C459.574 214.869 451.464 209.191 443.5 185C437.401 167.459 438.662 156.833 452 136C421.025 138.376 406.008 134.68 383 120C364.421 100.886 362.436 88.5471 356.5 67C328.158 87.2283 312.562 96.1893 286.5 98C249.984 100.348 236.755 94.5001 213.354 84.1566L213 84C204.967 110.4 199.518 124.62 176 141.5C145.601 162.535 129.53 163.307 101.5 157.5C111.86 182.413 114.307 195.773 101.5 216.5Z" fill="white" stroke="black" stroke-width="9"/>
</svg>
