<svg width="332" height="427" viewBox="0 0 332 427" fill="none" xmlns="http://www.w3.org/2000/svg">
<ellipse cx="18.9935" cy="221.769" rx="4.5" ry="5" transform="rotate(-175.97 18.9935 221.769)" fill="#FFFCFC"/>
<ellipse cx="28.0844" cy="192.335" rx="4.5" ry="5" transform="rotate(-175.97 28.0844 192.335)" fill="#FFFCFC"/>
<ellipse cx="5.29548" cy="202.759" rx="4.5" ry="5" transform="rotate(-175.97 5.29548 202.759)" fill="#03083F"/>
<ellipse cx="156.865" cy="255.256" rx="4.5" ry="5" transform="rotate(-175.97 156.865 255.256)" fill="#FFFCFC"/>
<ellipse cx="165.956" cy="225.822" rx="4.5" ry="5" transform="rotate(-175.97 165.956 225.822)" fill="#FFFCFC"/>
<ellipse cx="143.167" cy="236.247" rx="4.5" ry="5" transform="rotate(-175.97 143.167 236.247)" fill="#03083F"/>
<ellipse cx="126.797" cy="246.542" rx="4.5" ry="5" transform="rotate(-175.97 126.797 246.542)" fill="#FFFCFC"/>
<ellipse cx="135.888" cy="217.108" rx="4.5" ry="5" transform="rotate(-175.97 135.888 217.108)" fill="#FFFCFC"/>
<ellipse cx="113.099" cy="227.532" rx="4.5" ry="5" transform="rotate(-175.97 113.099 227.532)" fill="#FFFCFC"/>
<ellipse cx="46.8643" cy="110.512" rx="4.5" ry="5" transform="rotate(-114.441 46.8643 110.512)" fill="#FFFCFC"/>
<ellipse cx="57.0451" cy="89.4085" rx="4.5" ry="5" transform="rotate(-114.441 57.0451 89.4085)" fill="#03083F"/>
<ellipse cx="40.1913" cy="79.9265" rx="4.5" ry="5" transform="rotate(-114.441 40.1913 79.9265)" fill="#FFFCFC"/>
<ellipse cx="70.3993" cy="73.8867" rx="4.5" ry="5" transform="rotate(-114.441 70.3993 73.8867)" fill="#FFFCFC"/>
<ellipse cx="50.372" cy="58.8231" rx="4.5" ry="5" transform="rotate(-114.441 50.372 58.8231)" fill="#FFFCFC"/>
<ellipse cx="65.8314" cy="268.923" rx="4.5" ry="5" transform="rotate(-172.401 65.8314 268.923)" fill="#FFFCFC"/>
<ellipse cx="53.3433" cy="249.098" rx="4.5" ry="5" transform="rotate(-172.401 53.3433 249.098)" fill="#FFFCFC"/>
<ellipse cx="36.3646" cy="258.354" rx="4.5" ry="5" transform="rotate(-172.401 36.3646 258.354)" fill="#FFFCFC"/>
<ellipse cx="47.2704" cy="229.543" rx="4.5" ry="5" transform="rotate(-172.401 47.2704 229.543)" fill="#03083F"/>
<ellipse cx="23.8766" cy="238.529" rx="4.5" ry="5" transform="rotate(-172.401 23.8766 238.529)" fill="#FFFCFC"/>
<ellipse cx="250.868" cy="398.054" rx="4.5" ry="5" transform="rotate(122.534 250.868 398.054)" fill="#FFFCFC"/>
<ellipse cx="227.625" cy="401.02" rx="4.5" ry="5" transform="rotate(122.534 227.625 401.02)" fill="#FFFCFC"/>
<ellipse cx="228.861" cy="420.318" rx="4.5" ry="5" transform="rotate(122.534 228.861 420.318)" fill="#03083F"/>
<ellipse cx="207.333" cy="398.282" rx="4.5" ry="5" transform="rotate(122.534 207.333 398.282)" fill="#FFFCFC"/>
<ellipse cx="250.562" cy="290.619" rx="4.5" ry="5" transform="rotate(122.534 250.562 290.619)" fill="#FFFCFC"/>
<ellipse cx="193.062" cy="196.123" rx="4.5" ry="5" transform="rotate(51.5195 193.062 196.123)" fill="#FFFCFC"/>
<ellipse cx="179.254" cy="208.609" rx="4.5" ry="5" transform="rotate(123.671 179.254 208.609)" fill="#FFFCFC"/>
<ellipse cx="227.365" cy="200.252" rx="4.5" ry="5" transform="rotate(51.5195 227.365 200.252)" fill="#FFFCFC"/>
<ellipse cx="234.082" cy="226.522" rx="4.5" ry="5" transform="rotate(118.17 234.082 226.522)" fill="#FFFCFC"/>
<ellipse cx="234.275" cy="251.581" rx="4.5" ry="5" transform="rotate(118.17 234.275 251.581)" fill="#03083F"/>
<ellipse cx="202.551" cy="206.105" rx="4.5" ry="5" transform="rotate(123.671 202.551 206.105)" fill="#FFFCFC"/>
<ellipse cx="175.885" cy="284.87" rx="4.5" ry="5" transform="rotate(140.11 175.885 284.87)" fill="#FFFCFC"/>
<ellipse cx="223.817" cy="271.696" rx="4.5" ry="5" transform="rotate(101.632 223.817 271.696)" fill="#FFFCFC"/>
<ellipse cx="157.367" cy="276.133" rx="4.5" ry="5" transform="rotate(140.11 157.367 276.133)" fill="#FFFCFC"/>
<ellipse cx="203.162" cy="282.759" rx="4.5" ry="5" transform="rotate(101.632 203.162 282.759)" fill="#FFFCFC"/>
<ellipse cx="253.824" cy="86.0495" rx="4.5" ry="5" transform="rotate(34.6294 253.824 86.0495)" fill="#FFFCFC"/>
<ellipse cx="255.938" cy="109.385" rx="4.5" ry="5" transform="rotate(34.6294 255.938 109.385)" fill="#FFFCFC"/>
<ellipse cx="275.268" cy="108.856" rx="4.5" ry="5" transform="rotate(34.6294 275.268 108.856)" fill="#FFFCFC"/>
<ellipse cx="252.46" cy="129.563" rx="4.5" ry="5" transform="rotate(34.6294 252.46 129.563)" fill="#FFFCFC"/>
<ellipse cx="277.382" cy="132.191" rx="4.5" ry="5" transform="rotate(34.6294 277.382 132.191)" fill="#03083F"/>
<ellipse cx="202.045" cy="314.155" rx="4.5" ry="5" transform="rotate(159.228 202.045 314.155)" fill="#FFFCFC"/>
<ellipse cx="181.637" cy="302.645" rx="4.5" ry="5" transform="rotate(159.228 181.637 302.645)" fill="#FFFCFC"/>
<ellipse cx="171.096" cy="318.858" rx="4.5" ry="5" transform="rotate(159.228 171.096 318.858)" fill="#03083F"/>
<ellipse cx="167.001" cy="288.325" rx="4.5" ry="5" transform="rotate(159.228 167.001 288.325)" fill="#FFFCFC"/>
<ellipse cx="150.687" cy="307.348" rx="4.5" ry="5" transform="rotate(159.228 150.687 307.348)" fill="#FFFCFC"/>
<ellipse cx="72.1406" cy="176.159" rx="4.5" ry="5" transform="rotate(144.86 72.1406 176.159)" fill="#FFFCFC"/>
<ellipse cx="60.5975" cy="147.598" rx="4.5" ry="5" transform="rotate(144.86 60.5975 147.598)" fill="#FFFCFC"/>
<ellipse cx="49.5139" cy="170.073" rx="4.5" ry="5" transform="rotate(144.86 49.5139 170.073)" fill="#FFFCFC"/>
<ellipse cx="146.38" cy="149.683" rx="4.5" ry="5" transform="rotate(124.699 146.38 149.683)" fill="#FFFCFC"/>
<ellipse cx="125.7" cy="126.849" rx="4.5" ry="5" transform="rotate(124.699 125.7 126.849)" fill="#FFFCFC"/>
<ellipse cx="219.775" cy="191.541" rx="4.5" ry="5" transform="rotate(124.699 219.775 191.541)" fill="#03083F"/>
<ellipse cx="323.038" cy="82.2258" rx="4.5" ry="5" transform="rotate(124.699 323.038 82.2258)" fill="#FFFCFC"/>
<ellipse cx="302.358" cy="59.3927" rx="4.5" ry="5" transform="rotate(124.699 302.358 59.3927)" fill="#FFFCFC"/>
<ellipse cx="299.7" cy="84.3113" rx="4.5" ry="5" transform="rotate(124.699 299.7 84.3113)" fill="#FFFCFC"/>
<ellipse cx="261.317" cy="14.8654" rx="4.5" ry="5" transform="rotate(85.5297 261.317 14.8654)" fill="#FFFCFC"/>
<ellipse cx="230.863" cy="10.2249" rx="4.5" ry="5" transform="rotate(85.5297 230.863 10.2249)" fill="#FFFCFC"/>
<ellipse cx="244.541" cy="31.2228" rx="4.5" ry="5" transform="rotate(85.5297 244.541 31.2228)" fill="#FFFCFC"/>
<ellipse cx="326.451" cy="155.832" rx="4.5" ry="5" transform="rotate(-8.83149 326.451 155.832)" fill="#FFFCFC"/>
<ellipse cx="195.881" cy="108.546" rx="4.5" ry="5" transform="rotate(-8.83149 195.881 108.546)" fill="#FFFCFC"/>
<ellipse cx="215.778" cy="93.3104" rx="4.5" ry="5" transform="rotate(-8.83149 215.778 93.3104)" fill="#03083F"/>
<ellipse cx="138.766" cy="24.82" rx="4.5" ry="5" transform="rotate(-103.41 138.766 24.82)" fill="#FFFCFC"/>
<ellipse cx="169.571" cy="24.6716" rx="4.5" ry="5" transform="rotate(-103.41 169.571 24.6716)" fill="#FFFCFC"/>
<ellipse cx="152.796" cy="6.05448" rx="4.5" ry="5" transform="rotate(-103.41 152.796 6.05448)" fill="#03083F"/>
<ellipse cx="84.6654" cy="265.886" rx="4.5" ry="5" transform="rotate(55.44 84.6654 265.886)" fill="#03083F"/>
<ellipse cx="184.248" cy="355.145" rx="4.5" ry="5" transform="rotate(55.44 184.248 355.145)" fill="#FFFCFC"/>
<ellipse cx="206.61" cy="366.455" rx="4.5" ry="5" transform="rotate(55.44 206.61 366.455)" fill="#FFFCFC"/>
</svg>
